<svg width="115" height="71" viewBox="0 0 115 71" fill="none" xmlns="http://www.w3.org/2000/svg">
<rect width="114.322" height="71" fill="#EEDEDE"/>
<path opacity="0.7" d="M38.1016 47.3955H39.0654L43.3379 57H41.9365L40.665 54.1699H36.6045L35.4014 57H34L38.1016 47.3955ZM40.1045 52.9531L38.5664 49.4941L37.1377 52.9531H40.1045ZM48.9365 55.5303V56.7607C48.3122 56.9932 47.7015 57.1094 47.1045 57.1094C46.1201 57.1094 45.334 56.8177 44.7461 56.2344C44.1628 55.651 43.8711 54.8695 43.8711 53.8896C43.8711 52.9007 44.1559 52.1032 44.7256 51.4971C45.2952 50.891 46.0449 50.5879 46.9746 50.5879C47.2982 50.5879 47.5876 50.6198 47.8428 50.6836C48.1025 50.7428 48.4215 50.8568 48.7998 51.0254V52.3516C48.1709 51.9505 47.5876 51.75 47.0498 51.75C46.4893 51.75 46.029 51.9482 45.6689 52.3447C45.3089 52.7367 45.1289 53.238 45.1289 53.8486C45.1289 54.4912 45.3226 55.0016 45.71 55.3799C46.1019 55.7581 46.6283 55.9473 47.2891 55.9473C47.7676 55.9473 48.3167 55.8083 48.9365 55.5303ZM49.4766 51.709L51.8145 49.4121V50.7109H53.8037V51.832H51.8145V54.915C51.8145 55.6351 52.113 55.9951 52.71 55.9951C53.1566 55.9951 53.6283 55.8447 54.125 55.5439V56.7061C53.6465 56.9749 53.1247 57.1094 52.5596 57.1094C51.9899 57.1094 51.516 56.943 51.1377 56.6104C51.0192 56.5101 50.9212 56.3984 50.8438 56.2754C50.7663 56.1478 50.7002 55.9837 50.6455 55.7832C50.5954 55.5781 50.5703 55.1908 50.5703 54.6211V51.832H49.4766V51.709ZM55.6631 48.0654C55.8682 48.0654 56.0436 48.1361 56.1895 48.2773C56.3353 48.4186 56.4082 48.5918 56.4082 48.7969C56.4082 48.9974 56.3353 49.1706 56.1895 49.3164C56.0436 49.4622 55.8682 49.5352 55.6631 49.5352C55.4717 49.5352 55.3031 49.4622 55.1572 49.3164C55.0114 49.166 54.9385 48.9928 54.9385 48.7969C54.9385 48.6055 55.0114 48.4368 55.1572 48.291C55.3031 48.1406 55.4717 48.0654 55.6631 48.0654ZM55.0479 50.7109H56.292V57H55.0479V50.7109ZM61.9453 50.7109H63.292L60.5166 57.1094H60.0996L57.2559 50.7109H58.6162L60.3115 54.5801L61.9453 50.7109ZM64.8779 48.0654C65.083 48.0654 65.2585 48.1361 65.4043 48.2773C65.5501 48.4186 65.623 48.5918 65.623 48.7969C65.623 48.9974 65.5501 49.1706 65.4043 49.3164C65.2585 49.4622 65.083 49.5352 64.8779 49.5352C64.6865 49.5352 64.5179 49.4622 64.3721 49.3164C64.2262 49.166 64.1533 48.9928 64.1533 48.7969C64.1533 48.6055 64.2262 48.4368 64.3721 48.291C64.5179 48.1406 64.6865 48.0654 64.8779 48.0654ZM64.2627 50.7109H65.5068V57H64.2627V50.7109ZM66.4297 51.709L68.7676 49.4121V50.7109H70.7568V51.832H68.7676V54.915C68.7676 55.6351 69.0661 55.9951 69.6631 55.9951C70.1097 55.9951 70.5814 55.8447 71.0781 55.5439V56.7061C70.5996 56.9749 70.0778 57.1094 69.5127 57.1094C68.943 57.1094 68.4691 56.943 68.0908 56.6104C67.9723 56.5101 67.8743 56.3984 67.7969 56.2754C67.7194 56.1478 67.6533 55.9837 67.5986 55.7832C67.5485 55.5781 67.5234 55.1908 67.5234 54.6211V51.832H66.4297V51.709ZM72.6162 48.0654C72.8213 48.0654 72.9967 48.1361 73.1426 48.2773C73.2884 48.4186 73.3613 48.5918 73.3613 48.7969C73.3613 48.9974 73.2884 49.1706 73.1426 49.3164C72.9967 49.4622 72.8213 49.5352 72.6162 49.5352C72.4248 49.5352 72.2562 49.4622 72.1104 49.3164C71.9645 49.166 71.8916 48.9928 71.8916 48.7969C71.8916 48.6055 71.9645 48.4368 72.1104 48.291C72.2562 48.1406 72.4248 48.0654 72.6162 48.0654ZM72.001 50.7109H73.2451V57H72.001V50.7109ZM80.4092 53.9648H75.9863C76.0182 54.5664 76.2188 55.0449 76.5879 55.4004C76.9616 55.7559 77.4424 55.9336 78.0303 55.9336C78.8506 55.9336 79.6071 55.6784 80.2998 55.168V56.3848C79.917 56.64 79.5365 56.8223 79.1582 56.9316C78.7845 57.041 78.3447 57.0957 77.8389 57.0957C77.1462 57.0957 76.5856 56.9521 76.1572 56.665C75.7288 56.3779 75.3848 55.9928 75.125 55.5098C74.8698 55.0221 74.7422 54.4593 74.7422 53.8213C74.7422 52.8643 75.0133 52.0872 75.5557 51.4902C76.098 50.8887 76.8021 50.5879 77.668 50.5879C78.502 50.5879 79.1673 50.8796 79.6641 51.4629C80.1608 52.0462 80.4092 52.8278 80.4092 53.8076V53.9648ZM76.0137 53.2197H79.1787C79.1468 52.723 78.9987 52.3402 78.7344 52.0713C78.4701 51.8024 78.1146 51.668 77.668 51.668C77.2214 51.668 76.8545 51.8024 76.5674 52.0713C76.2848 52.3402 76.1003 52.723 76.0137 53.2197ZM81.4551 56.5488V55.209C81.806 55.4551 82.1637 55.6556 82.5283 55.8105C82.8975 55.9609 83.2074 56.0361 83.458 56.0361C83.7178 56.0361 83.9411 55.9723 84.1279 55.8447C84.3148 55.7171 84.4082 55.5645 84.4082 55.3867C84.4082 55.2044 84.3467 55.054 84.2236 54.9355C84.1051 54.8125 83.8454 54.637 83.4443 54.4092C82.6423 53.9626 82.1159 53.582 81.8652 53.2676C81.6191 52.9486 81.4961 52.6022 81.4961 52.2285C81.4961 51.7454 81.6829 51.3512 82.0566 51.0459C82.4349 50.7406 82.9202 50.5879 83.5127 50.5879C84.1279 50.5879 84.7591 50.7611 85.4062 51.1074V52.3379C84.668 51.8913 84.0641 51.668 83.5947 51.668C83.3532 51.668 83.1572 51.7204 83.0068 51.8252C82.861 51.9255 82.7881 52.0599 82.7881 52.2285C82.7881 52.3743 82.8542 52.5133 82.9863 52.6455C83.123 52.7777 83.36 52.9372 83.6973 53.124L84.1416 53.377C85.1898 53.9694 85.7139 54.6257 85.7139 55.3457C85.7139 55.8607 85.5111 56.2845 85.1055 56.6172C84.7044 56.9453 84.1872 57.1094 83.5537 57.1094C83.18 57.1094 82.8473 57.0706 82.5557 56.9932C82.264 56.9111 81.8971 56.763 81.4551 56.5488Z" fill="black"/>
<path d="M68.5904 8.42383H44.9308C43.5061 8.42383 42.3135 9.59262 42.3135 10.9889V19.5305C42.3135 27.4088 48.7409 33.695 56.767 33.695C64.761 33.695 71.1948 27.4088 71.1948 19.5305V10.9889C71.1948 9.57367 70.0538 8.42383 68.5904 8.42383ZM58.1467 25.3871C57.3473 26.1326 56.1224 26.0884 55.4132 25.3871C48.0833 18.507 48.0059 18.7471 48.0059 17.6036C48.0059 16.5359 48.8956 15.664 49.9851 15.664C51.081 15.664 51.023 15.9041 56.767 21.3058C62.6078 15.8156 62.4789 15.664 63.5684 15.664C64.6578 15.664 65.5475 16.5359 65.5475 17.6036C65.5475 18.7282 65.3605 18.5955 58.1467 25.3871Z" fill="#721C09"/>
</svg>
