<svg width="60" height="52" viewBox="0 0 60 52" fill="none" xmlns="http://www.w3.org/2000/svg">
<path d="M59.687 0.00193091L20.4005 44.3136C17.1384 47.9709 14.1743 50.1322 11.5086 50.7881C8.48984 51.5308 5.87709 50.3571 3.67467 47.2611C2.27838 45.269 1.3407 42.5385 0.85785 39.0658C0.375003 35.5931 0.420587 31.7586 0.985986 27.5507C1.48134 24.1385 2.54015 19.5543 4.16672 13.7923C3.80447 16.5167 3.76181 19.4208 4.04046 22.3874C4.57057 27.7948 6.19269 31.4599 8.90789 33.387C10.1939 34.2801 11.7174 34.5123 13.4801 34.0786C14.8871 33.7324 16.3816 32.9754 17.9637 31.8076L59.687 0.00193091Z" fill="#990202"/>
</svg>
