<svg width="115" height="71" viewBox="0 0 115 71" fill="none" xmlns="http://www.w3.org/2000/svg">
<rect width="114.322" height="71" fill="#EEDEDE"/>
<path opacity="0.7" d="M28.0527 49.4502H29.4199V57.7559H33.7197V59H28.0527V49.4502ZM35.3877 50.0654C35.5928 50.0654 35.7682 50.1361 35.9141 50.2773C36.0599 50.4186 36.1328 50.5918 36.1328 50.7969C36.1328 50.9974 36.0599 51.1706 35.9141 51.3164C35.7682 51.4622 35.5928 51.5352 35.3877 51.5352C35.1963 51.5352 35.0277 51.4622 34.8818 51.3164C34.736 51.166 34.6631 50.9928 34.6631 50.7969C34.6631 50.6055 34.736 50.4368 34.8818 50.291C35.0277 50.1406 35.1963 50.0654 35.3877 50.0654ZM34.7725 52.7109H36.0166V59H34.7725V52.7109ZM37.5137 58.5488V57.209C37.8646 57.4551 38.2223 57.6556 38.5869 57.8105C38.9561 57.9609 39.266 58.0361 39.5166 58.0361C39.7764 58.0361 39.9997 57.9723 40.1865 57.8447C40.3734 57.7171 40.4668 57.5645 40.4668 57.3867C40.4668 57.2044 40.4053 57.054 40.2822 56.9355C40.1637 56.8125 39.904 56.637 39.5029 56.4092C38.7008 55.9626 38.1745 55.582 37.9238 55.2676C37.6777 54.9486 37.5547 54.6022 37.5547 54.2285C37.5547 53.7454 37.7415 53.3512 38.1152 53.0459C38.4935 52.7406 38.9788 52.5879 39.5713 52.5879C40.1865 52.5879 40.8177 52.7611 41.4648 53.1074V54.3379C40.7266 53.8913 40.1227 53.668 39.6533 53.668C39.4118 53.668 39.2158 53.7204 39.0654 53.8252C38.9196 53.9255 38.8467 54.0599 38.8467 54.2285C38.8467 54.3743 38.9128 54.5133 39.0449 54.6455C39.1816 54.7777 39.4186 54.9372 39.7559 55.124L40.2002 55.377C41.2484 55.9694 41.7725 56.6257 41.7725 57.3457C41.7725 57.8607 41.5697 58.2845 41.1641 58.6172C40.763 58.9453 40.2458 59.1094 39.6123 59.1094C39.2386 59.1094 38.9059 59.0706 38.6143 58.9932C38.3226 58.9111 37.9557 58.763 37.5137 58.5488ZM42.3262 53.709L44.6641 51.4121V52.7109H46.6533V53.832H44.6641V56.915C44.6641 57.6351 44.9626 57.9951 45.5596 57.9951C46.0062 57.9951 46.4779 57.8447 46.9746 57.5439V58.7061C46.4961 58.9749 45.9743 59.1094 45.4092 59.1094C44.8395 59.1094 44.3656 58.943 43.9873 58.6104C43.8688 58.5101 43.7708 58.3984 43.6934 58.2754C43.6159 58.1478 43.5498 57.9837 43.4951 57.7832C43.445 57.5781 43.4199 57.1908 43.4199 56.6211V53.832H42.3262V53.709ZM55.7178 55.2197V57.8926C55.7178 58.1068 55.7907 58.2139 55.9365 58.2139C56.0869 58.2139 56.3216 58.1022 56.6406 57.8789V58.6377C56.3581 58.82 56.1302 58.943 55.957 59.0068C55.7884 59.0752 55.6107 59.1094 55.4238 59.1094C54.8906 59.1094 54.5762 58.8997 54.4805 58.4805C53.9518 58.8906 53.389 59.0957 52.792 59.0957C52.3545 59.0957 51.9899 58.9521 51.6982 58.665C51.4066 58.3734 51.2607 58.0088 51.2607 57.5713C51.2607 57.1748 51.402 56.8216 51.6846 56.5117C51.9717 56.1973 52.3773 55.9489 52.9014 55.7666L54.4941 55.2197V54.8848C54.4941 54.1283 54.1159 53.75 53.3594 53.75C52.6803 53.75 52.0195 54.1009 51.377 54.8027V53.4424C51.86 52.8727 52.555 52.5879 53.4619 52.5879C54.141 52.5879 54.6855 52.7656 55.0957 53.1211C55.2324 53.235 55.3555 53.3877 55.4648 53.5791C55.5742 53.766 55.6426 53.9551 55.6699 54.1465C55.7018 54.3333 55.7178 54.6911 55.7178 55.2197ZM54.4941 57.7559V55.8896L53.6602 56.2109C53.2363 56.3796 52.9355 56.5505 52.7578 56.7236C52.5846 56.8923 52.498 57.1042 52.498 57.3594C52.498 57.6191 52.5801 57.8311 52.7441 57.9951C52.9128 58.1592 53.1292 58.2412 53.3936 58.2412C53.79 58.2412 54.1569 58.0794 54.4941 57.7559ZM66.792 54.4336V59H65.541V55.5C65.541 54.8027 65.4476 54.3174 65.2607 54.0439C65.0739 53.766 64.748 53.627 64.2832 53.627C64.0234 53.627 63.7842 53.6862 63.5654 53.8047C63.3512 53.9232 63.1051 54.1328 62.8271 54.4336V59H61.583V52.7109H62.8271V53.5381C63.4606 52.9046 64.0804 52.5879 64.6865 52.5879C65.484 52.5879 66.1016 52.9661 66.5391 53.7227C67.2044 52.957 67.8994 52.5742 68.624 52.5742C69.2347 52.5742 69.736 52.7975 70.1279 53.2441C70.5244 53.6908 70.7227 54.3721 70.7227 55.2881V59H69.4785V55.2744C69.4785 54.7503 69.3714 54.3493 69.1572 54.0713C68.943 53.7933 68.6354 53.6543 68.2344 53.6543C67.7194 53.6543 67.2386 53.9141 66.792 54.4336ZM75.4463 52.6973C76.4033 52.6973 77.1986 53.0072 77.832 53.627C78.4655 54.2422 78.7822 55.0169 78.7822 55.9512C78.7822 56.8581 78.4609 57.6123 77.8184 58.2139C77.1758 58.8109 76.3669 59.1094 75.3916 59.1094C74.4482 59.1094 73.6598 58.8063 73.0264 58.2002C72.3929 57.5895 72.0762 56.8285 72.0762 55.917C72.0762 54.9964 72.3952 54.2308 73.0332 53.6201C73.6758 53.0049 74.4801 52.6973 75.4463 52.6973ZM75.3779 53.8184C74.7809 53.8184 74.291 54.0143 73.9082 54.4062C73.5254 54.7982 73.334 55.2972 73.334 55.9033C73.334 56.5049 73.5299 56.9971 73.9219 57.3799C74.3138 57.7581 74.8174 57.9473 75.4326 57.9473C76.0433 57.9473 76.5423 57.7559 76.9297 57.373C77.3216 56.9857 77.5176 56.4912 77.5176 55.8896C77.5176 55.2926 77.3148 54.7982 76.9092 54.4062C76.5036 54.0143 75.9932 53.8184 75.3779 53.8184ZM84.0117 52.7109H85.3584L82.583 59.1094H82.166L79.3223 52.7109H80.6826L82.3779 56.5801L84.0117 52.7109ZM86.9443 50.0654C87.1494 50.0654 87.3249 50.1361 87.4707 50.2773C87.6165 50.4186 87.6895 50.5918 87.6895 50.7969C87.6895 50.9974 87.6165 51.1706 87.4707 51.3164C87.3249 51.4622 87.1494 51.5352 86.9443 51.5352C86.7529 51.5352 86.5843 51.4622 86.4385 51.3164C86.2926 51.166 86.2197 50.9928 86.2197 50.7969C86.2197 50.6055 86.2926 50.4368 86.4385 50.291C86.5843 50.1406 86.7529 50.0654 86.9443 50.0654ZM86.3291 52.7109H87.5732V59H86.3291V52.7109ZM94.7373 55.9648H90.3145C90.3464 56.5664 90.5469 57.0449 90.916 57.4004C91.2897 57.7559 91.7705 57.9336 92.3584 57.9336C93.1787 57.9336 93.9352 57.6784 94.6279 57.168V58.3848C94.2451 58.64 93.8646 58.8223 93.4863 58.9316C93.1126 59.041 92.6729 59.0957 92.167 59.0957C91.4743 59.0957 90.9137 58.9521 90.4854 58.665C90.057 58.3779 89.7129 57.9928 89.4531 57.5098C89.1979 57.0221 89.0703 56.4593 89.0703 55.8213C89.0703 54.8643 89.3415 54.0872 89.8838 53.4902C90.4261 52.8887 91.1302 52.5879 91.9961 52.5879C92.8301 52.5879 93.4954 52.8796 93.9922 53.4629C94.4889 54.0462 94.7373 54.8278 94.7373 55.8076V55.9648ZM90.3418 55.2197H93.5068C93.4749 54.723 93.3268 54.3402 93.0625 54.0713C92.7982 53.8024 92.4427 53.668 91.9961 53.668C91.5495 53.668 91.1826 53.8024 90.8955 54.0713C90.613 54.3402 90.4284 54.723 90.3418 55.2197Z" fill="black"/>
<path d="M44.3374 22.4355V24.015H50.8495L42.0059 30.0058L43.6543 31.1225L52.4979 25.1317V29.5431H54.8295V22.4355H44.3374Z" fill="#721C09"/>
<path d="M69.9847 10.5896H44.3374C43.7191 10.5896 43.126 10.756 42.6888 11.0522C42.2515 11.3484 42.0059 11.7502 42.0059 12.169V20.0663H44.3374V16.9074H55.9953V20.0663H58.3268V16.9074H69.9847V22.4355H58.3268V24.0149H69.9847V29.543H58.3268V31.1224H69.9847C70.603 31.1224 71.1961 30.956 71.6333 30.6598C72.0706 30.3636 72.3162 29.9619 72.3162 29.543V12.169C72.3162 11.7502 72.0706 11.3484 71.6333 11.0522C71.1961 10.756 70.603 10.5896 69.9847 10.5896ZM69.9847 15.3279H44.3374V12.169H69.9847V15.3279Z" fill="#721C09"/>
</svg>
