<svg width="105" height="71" viewBox="0 0 105 71" fill="none" xmlns="http://www.w3.org/2000/svg">
<rect width="104.957" height="71" fill="#EEDEDE"/>
<path opacity="0.7" d="M32.6543 49.4502H33.9258V59H32.5518V51.5693L29.6123 55.2607H29.3594L26.3926 51.5693V59H25.0254V49.4502H26.3105L29.4893 53.374L32.6543 49.4502ZM38.8271 52.6973C39.7842 52.6973 40.5794 53.0072 41.2129 53.627C41.8464 54.2422 42.1631 55.0169 42.1631 55.9512C42.1631 56.8581 41.8418 57.6123 41.1992 58.2139C40.5566 58.8109 39.7477 59.1094 38.7725 59.1094C37.8291 59.1094 37.0407 58.8063 36.4072 58.2002C35.7738 57.5895 35.457 56.8285 35.457 55.917C35.457 54.9964 35.776 54.2308 36.4141 53.6201C37.0566 53.0049 37.861 52.6973 38.8271 52.6973ZM38.7588 53.8184C38.1618 53.8184 37.6719 54.0143 37.2891 54.4062C36.9062 54.7982 36.7148 55.2972 36.7148 55.9033C36.7148 56.5049 36.9108 56.9971 37.3027 57.3799C37.6947 57.7581 38.1982 57.9473 38.8135 57.9473C39.4242 57.9473 39.9232 57.7559 40.3105 57.373C40.7025 56.9857 40.8984 56.4912 40.8984 55.8896C40.8984 55.2926 40.6956 54.7982 40.29 54.4062C39.8844 54.0143 39.374 53.8184 38.7588 53.8184ZM47.3926 52.7109H48.7393L45.9639 59.1094H45.5469L42.7031 52.7109H44.0635L45.7588 56.5801L47.3926 52.7109ZM50.3252 50.0654C50.5303 50.0654 50.7057 50.1361 50.8516 50.2773C50.9974 50.4186 51.0703 50.5918 51.0703 50.7969C51.0703 50.9974 50.9974 51.1706 50.8516 51.3164C50.7057 51.4622 50.5303 51.5352 50.3252 51.5352C50.1338 51.5352 49.9652 51.4622 49.8193 51.3164C49.6735 51.166 49.6006 50.9928 49.6006 50.7969C49.6006 50.6055 49.6735 50.4368 49.8193 50.291C49.9652 50.1406 50.1338 50.0654 50.3252 50.0654ZM49.71 52.7109H50.9541V59H49.71V52.7109ZM58.1182 55.9648H53.6953C53.7272 56.5664 53.9277 57.0449 54.2969 57.4004C54.6706 57.7559 55.1514 57.9336 55.7393 57.9336C56.5596 57.9336 57.3161 57.6784 58.0088 57.168V58.3848C57.626 58.64 57.2454 58.8223 56.8672 58.9316C56.4935 59.041 56.0537 59.0957 55.5479 59.0957C54.8551 59.0957 54.2946 58.9521 53.8662 58.665C53.4378 58.3779 53.0938 57.9928 52.834 57.5098C52.5788 57.0221 52.4512 56.4593 52.4512 55.8213C52.4512 54.8643 52.7223 54.0872 53.2646 53.4902C53.807 52.8887 54.5111 52.5879 55.377 52.5879C56.2109 52.5879 56.8763 52.8796 57.373 53.4629C57.8698 54.0462 58.1182 54.8278 58.1182 55.8076V55.9648ZM53.7227 55.2197H56.8877C56.8558 54.723 56.7077 54.3402 56.4434 54.0713C56.179 53.8024 55.8236 53.668 55.377 53.668C54.9303 53.668 54.5635 53.8024 54.2764 54.0713C53.9938 54.3402 53.8092 54.723 53.7227 55.2197ZM63.0605 58.5488V57.209C63.4115 57.4551 63.7692 57.6556 64.1338 57.8105C64.5029 57.9609 64.8128 58.0361 65.0635 58.0361C65.3232 58.0361 65.5465 57.9723 65.7334 57.8447C65.9202 57.7171 66.0137 57.5645 66.0137 57.3867C66.0137 57.2044 65.9521 57.054 65.8291 56.9355C65.7106 56.8125 65.4508 56.637 65.0498 56.4092C64.2477 55.9626 63.7214 55.582 63.4707 55.2676C63.2246 54.9486 63.1016 54.6022 63.1016 54.2285C63.1016 53.7454 63.2884 53.3512 63.6621 53.0459C64.0404 52.7406 64.5257 52.5879 65.1182 52.5879C65.7334 52.5879 66.3646 52.7611 67.0117 53.1074V54.3379C66.2734 53.8913 65.6696 53.668 65.2002 53.668C64.9587 53.668 64.7627 53.7204 64.6123 53.8252C64.4665 53.9255 64.3936 54.0599 64.3936 54.2285C64.3936 54.3743 64.4596 54.5133 64.5918 54.6455C64.7285 54.7777 64.9655 54.9372 65.3027 55.124L65.7471 55.377C66.7952 55.9694 67.3193 56.6257 67.3193 57.3457C67.3193 57.8607 67.1165 58.2845 66.7109 58.6172C66.3099 58.9453 65.7926 59.1094 65.1592 59.1094C64.7855 59.1094 64.4528 59.0706 64.1611 58.9932C63.8695 58.9111 63.5026 58.763 63.0605 58.5488ZM68.7822 49.4502H70.0264V59H68.7822V49.4502ZM74.8389 52.6973C75.7959 52.6973 76.5911 53.0072 77.2246 53.627C77.8581 54.2422 78.1748 55.0169 78.1748 55.9512C78.1748 56.8581 77.8535 57.6123 77.2109 58.2139C76.5684 58.8109 75.7594 59.1094 74.7842 59.1094C73.8408 59.1094 73.0524 58.8063 72.4189 58.2002C71.7855 57.5895 71.4688 56.8285 71.4688 55.917C71.4688 54.9964 71.7878 54.2308 72.4258 53.6201C73.0684 53.0049 73.8727 52.6973 74.8389 52.6973ZM74.7705 53.8184C74.1735 53.8184 73.6836 54.0143 73.3008 54.4062C72.918 54.7982 72.7266 55.2972 72.7266 55.9033C72.7266 56.5049 72.9225 56.9971 73.3145 57.3799C73.7064 57.7581 74.21 57.9473 74.8252 57.9473C75.4359 57.9473 75.9349 57.7559 76.3223 57.373C76.7142 56.9857 76.9102 56.4912 76.9102 55.8896C76.9102 55.2926 76.7074 54.7982 76.3018 54.4062C75.8962 54.0143 75.3857 53.8184 74.7705 53.8184ZM78.6738 53.709L81.0117 51.4121V52.7109H83.001V53.832H81.0117V56.915C81.0117 57.6351 81.3102 57.9951 81.9072 57.9951C82.3538 57.9951 82.8255 57.8447 83.3223 57.5439V58.7061C82.8438 58.9749 82.3219 59.1094 81.7568 59.1094C81.1872 59.1094 80.7132 58.943 80.335 58.6104C80.2165 58.5101 80.1185 58.3984 80.041 58.2754C79.9635 58.1478 79.8975 57.9837 79.8428 57.7832C79.7926 57.5781 79.7676 57.1908 79.7676 56.6211V53.832H78.6738V53.709ZM83.9102 58.5488V57.209C84.2611 57.4551 84.6188 57.6556 84.9834 57.8105C85.3525 57.9609 85.6624 58.0361 85.9131 58.0361C86.1729 58.0361 86.3962 57.9723 86.583 57.8447C86.7699 57.7171 86.8633 57.5645 86.8633 57.3867C86.8633 57.2044 86.8018 57.054 86.6787 56.9355C86.5602 56.8125 86.3005 56.637 85.8994 56.4092C85.0973 55.9626 84.571 55.582 84.3203 55.2676C84.0742 54.9486 83.9512 54.6022 83.9512 54.2285C83.9512 53.7454 84.138 53.3512 84.5117 53.0459C84.89 52.7406 85.3753 52.5879 85.9678 52.5879C86.583 52.5879 87.2142 52.7611 87.8613 53.1074V54.3379C87.123 53.8913 86.5192 53.668 86.0498 53.668C85.8083 53.668 85.6123 53.7204 85.4619 53.8252C85.3161 53.9255 85.2432 54.0599 85.2432 54.2285C85.2432 54.3743 85.3092 54.5133 85.4414 54.6455C85.5781 54.7777 85.8151 54.9372 86.1523 55.124L86.5967 55.377C87.6449 55.9694 88.1689 56.6257 88.1689 57.3457C88.1689 57.8607 87.9661 58.2845 87.5605 58.6172C87.1595 58.9453 86.6423 59.1094 86.0088 59.1094C85.6351 59.1094 85.3024 59.0706 85.0107 58.9932C84.7191 58.9111 84.3522 58.763 83.9102 58.5488Z" fill="black"/>
<g clip-path="url(#clip0_40_365)">
<path d="M61.0177 40.4939L29.2504 35.9556L34.4548 16.6352L60.5635 20.3651L61.0177 40.4939Z" fill="#89664C"/>
<path d="M44.8164 16.5451C41.9375 16.1339 36.4786 16.1827 34.7982 15.4629C34.7982 15.4629 34.2277 23.974 30.3653 35.5041C33.816 35.779 38.5839 34.7591 41.9592 35.2413C45.3841 35.7306 45.1569 37.6173 45.1569 37.6173L47.3926 19.0504C47.4919 19.0646 47.6953 16.9564 44.8164 16.5451Z" fill="#B0BDC6"/>
<path d="M44.9017 16.2522C42.0228 15.8409 37.5122 15.9816 36.3527 14.2894C36.3527 14.2894 35.6481 23.9153 31.3842 34.1669C32.3162 35.6522 38.3901 34.688 41.815 35.1773C45.2399 35.6666 45.2061 37.6245 45.2061 37.6245L47.478 18.7575C47.5276 18.7646 47.7806 16.6635 44.9017 16.2522Z" fill="#E1EBEF"/>
<path d="M42.0088 35.2484C38.5839 34.7591 32.3507 35.7878 30.4149 35.5112L45.2562 37.6315C45.2562 37.6315 45.4337 35.7377 42.0088 35.2484Z" fill="#94989B"/>
<path d="M37.3692 18.0111L37.4601 17.6752C37.9068 17.739 38.7662 17.7309 39.7299 17.6941C41.0463 17.6641 42.5663 17.6195 43.7576 17.7897C45.346 18.0166 45.8062 18.3877 45.9003 18.4448L45.7359 18.5521L45.5715 18.6595C45.5715 18.6595 45.1061 18.3313 43.7163 18.1328C42.5747 17.9697 41.1042 18.0213 39.7879 18.0513C38.7745 18.081 37.9152 18.0891 37.3692 18.0111Z" fill="#7D8B91"/>
<path d="M36.9485 19.8267L37.0446 19.4479C37.541 19.5188 38.4003 19.5107 39.364 19.4739C40.73 19.451 42.2501 19.4064 43.4413 19.5766C45.0297 19.8035 45.5396 20.1817 45.584 20.2317L45.4641 20.389L45.2946 20.5392C45.2946 20.5392 44.8343 20.1682 43.3949 19.9625C42.2036 19.7923 40.7332 19.844 39.3672 19.8669C38.3538 19.8966 37.4945 19.9047 36.9485 19.8267Z" fill="#7D8B91"/>
<path d="M36.5177 21.7279L36.6139 21.3491C37.1102 21.42 37.9747 21.369 38.9881 21.3393C40.3592 21.2735 41.9289 21.236 43.1698 21.4133C44.8078 21.6473 45.3125 22.0684 45.357 22.1183L45.1875 22.2686L45.0179 22.4188C45.0179 22.4188 44.5577 22.0478 43.0686 21.835C41.8773 21.6648 40.3572 21.7094 38.9861 21.7752C37.9727 21.8049 37.0637 21.8059 36.5177 21.7279Z" fill="#7D8B91"/>
<path d="M36.0765 23.7149L36.1778 23.2931C36.6742 23.3641 37.5883 23.3202 38.6017 23.2905C40.0225 23.2318 41.5922 23.1943 42.8827 23.3787C44.5704 23.6198 45.075 24.0408 45.1195 24.0908L44.9003 24.2339L44.7804 24.3913C44.7804 24.3913 44.3202 24.0202 42.7814 23.8004C41.5405 23.6231 39.9708 23.6606 38.5997 23.7264C37.5367 23.749 36.6225 23.7929 36.0765 23.7149Z" fill="#7D8B91"/>
<path d="M35.5753 25.7804L35.6766 25.3587C36.1729 25.4296 37.087 25.3858 38.15 25.3632C39.5708 25.3044 41.1954 25.2312 42.4859 25.4156C44.1735 25.6567 44.7279 26.0848 44.7723 26.1348L44.6028 26.285L44.4332 26.4353C44.4332 26.4353 43.973 26.0642 42.3846 25.8373C41.1437 25.66 39.5192 25.7332 38.0984 25.792C37.085 25.8217 36.1213 25.8584 35.5753 25.7804Z" fill="#7D8B91"/>
<path d="M35.0638 27.932L35.165 27.5103C35.6614 27.5812 36.6252 27.5444 37.6933 27.4789C39.1638 27.4273 40.8379 27.3611 42.1285 27.5455C43.8657 27.7937 44.4149 28.2647 44.4594 28.3147L44.2898 28.4649L44.1203 28.6151C44.1203 28.6151 43.6156 28.1941 42.0272 27.9672C40.7366 27.7828 39.1121 27.8561 37.6417 27.9077C36.6232 27.9803 35.6594 28.0171 35.0638 27.932Z" fill="#7D8B91"/>
<path d="M34.5417 30.1691L34.6482 29.7045C35.1942 29.7825 36.1083 29.7386 37.2261 29.6802C38.7513 29.5928 40.4255 29.5267 41.7657 29.7181C43.5526 29.9734 44.1017 30.4444 44.1462 30.4944L44.0211 30.6946L43.8515 30.8448C43.8515 30.8448 43.3469 30.4238 41.7089 30.1898C40.4183 30.0054 38.7442 30.0716 37.2189 30.159C36.1508 30.2245 35.1374 30.2542 34.5417 30.1691Z" fill="#7D8B91"/>
<path d="M34.0048 32.535L34.1113 32.0704C34.6573 32.1484 35.621 32.1116 36.7388 32.0532C38.2641 31.9658 40.0426 31.8709 41.3828 32.0624C43.2194 32.3248 43.7634 32.8387 43.8078 32.8886L43.6383 33.0389L43.5184 33.1962C43.5184 33.1962 43.0188 32.7323 41.3312 32.4912C39.991 32.2997 38.2621 32.4017 36.7368 32.4891C35.619 32.5475 34.6005 32.6201 34.0048 32.535Z" fill="#7D8B91"/>
<path d="M50.574 17.3679C53.4529 17.7792 58.7156 19.3597 60.5096 19.1363C60.5096 19.1363 59.0457 27.5197 60.0477 39.7448C56.6486 39.0411 52.2834 36.7164 48.9081 36.2342C45.4832 35.745 45.256 37.6317 45.256 37.6317L47.4917 19.0648C47.4421 19.0577 47.6951 16.9566 50.574 17.3679Z" fill="#B0BDC6"/>
<path d="M50.5603 17.0606C53.4393 17.4719 57.764 18.8749 59.2849 17.5655C59.2849 17.5655 57.6867 27.0639 59.3792 38.1663C58.1272 39.3396 52.4869 36.7019 49.062 36.2126C45.6371 35.7233 45.2062 37.6246 45.2062 37.6246L47.4781 18.7575C47.4781 18.7575 47.7311 16.6564 50.5603 17.0606Z" fill="#D9E3E8"/>
<path d="M48.8585 36.2271C52.2834 36.7164 58.0622 39.4611 59.9981 39.7377L45.2064 37.6245C45.2064 37.6245 45.4336 35.7378 48.8585 36.2271Z" fill="#94989B"/>
<path d="M57.4221 20.876L57.4138 20.5259C56.967 20.4621 56.1387 20.2129 55.2163 19.9066C53.9515 19.5079 52.4934 19.0379 51.3022 18.8677C49.7138 18.6408 49.1813 18.87 49.0769 18.8987L49.2103 19.0486L49.3437 19.1985C49.3437 19.1985 49.871 19.0122 51.2609 19.2107C52.4025 19.3738 53.811 19.8367 55.0757 20.2355C56.0974 20.5559 56.9257 20.8051 57.4221 20.876Z" fill="#7D8B91"/>
<path d="M57.3985 22.7483L57.3954 22.3553C56.899 22.2844 56.0707 22.0352 55.1482 21.7289C53.8339 21.3231 52.3758 20.853 51.1845 20.6829C49.5961 20.4559 49.014 20.6781 48.9592 20.7139L49.0926 20.8638L49.2209 21.0566C49.2209 21.0566 49.7534 20.8273 51.1928 21.033C52.3841 21.2032 53.7926 21.6661 55.1069 22.072C56.0242 22.4211 56.8525 22.6703 57.3985 22.7483Z" fill="#7D8B91"/>
<path d="M57.3646 24.7061L57.3614 24.3131C56.8651 24.2422 56.0419 23.9502 55.0698 23.6368C53.7606 23.1881 52.2529 22.711 51.012 22.5337C49.374 22.2997 48.7867 22.5647 48.7319 22.6005L48.8601 22.7933L48.9884 22.9861C48.9884 22.9861 49.5209 22.7569 51.01 22.9696C52.2012 23.1398 53.6593 23.6098 54.9685 24.0585C55.9903 24.379 56.8186 24.6281 57.3646 24.7061Z" fill="#7D8B91"/>
<path d="M57.3705 26.7569L57.3725 26.321C56.8761 26.2501 56.0033 25.9509 55.0312 25.6376C53.6724 25.1818 52.1646 24.7047 50.8741 24.5203C49.1865 24.2792 48.5992 24.5442 48.5444 24.58L48.6726 24.7728L48.8009 24.9656C48.8009 24.9656 49.3334 24.7363 50.8721 24.9562C52.113 25.1334 53.6208 25.6106 54.93 26.0593C55.902 26.3726 56.8245 26.6789 57.3705 26.7569Z" fill="#7D8B91"/>
<path d="M57.316 28.8865L57.318 28.4506C56.8216 28.3797 55.9488 28.0805 54.9271 27.7601C53.5683 27.3042 52.016 26.7772 50.7255 26.5928C49.0379 26.3517 48.4009 26.6096 48.3461 26.6454L48.4744 26.8382L48.6026 27.031C48.6026 27.031 49.1351 26.8018 50.7235 27.0287C51.9644 27.206 53.5166 27.733 54.8755 28.1889C55.8475 28.5022 56.77 28.8085 57.316 28.8865Z" fill="#7D8B91"/>
<path d="M57.3009 31.1088L57.3029 30.6729C56.8065 30.602 55.8841 30.2958 54.8675 29.9325C53.459 29.4696 51.8572 28.9354 50.5666 28.751C48.8294 28.5028 48.1872 28.8037 48.1324 28.8394L48.2607 29.0322L48.389 29.225C48.389 29.225 48.9763 28.96 50.5646 29.1869C51.8552 29.3713 53.4074 29.8983 54.8159 30.3613C55.7828 30.7175 56.7052 31.0237 57.3009 31.1088Z" fill="#7D8B91"/>
<path d="M57.2752 33.4168L57.2824 32.938C56.7364 32.86 55.8636 32.5609 54.7974 32.1905C53.3444 31.6776 51.7426 31.1434 50.4024 30.952C48.6155 30.6967 47.9734 30.9975 47.9186 31.0333L48.0468 31.2261L48.1751 31.4189C48.1751 31.4189 48.7624 31.1538 50.4004 31.3878C51.6909 31.5722 53.2928 32.1064 54.7458 32.6193C55.7571 33.0255 56.6796 33.3317 57.2752 33.4168Z" fill="#7D8B91"/>
<path d="M57.2342 35.8535L57.2414 35.3748C56.6954 35.2968 55.7729 34.9905 54.7068 34.6201C53.2538 34.1072 51.5578 33.516 50.2177 33.3245C48.3811 33.0622 47.7338 33.4059 47.679 33.4416L47.8073 33.6344L47.9304 33.8701C47.9304 33.8701 48.5229 33.5622 50.2105 33.8033C51.5507 33.9948 53.197 34.5789 54.65 35.0918C55.6717 35.4122 56.6386 35.7684 57.2342 35.8535Z" fill="#7D8B91"/>
</g>
<g >
<g opacity="0.8">
<path d="M64.3803 27.1958C64.9544 27.6435 68.9161 27.6028 69.6051 27.2772C71.0405 26.6668 81.0307 18.1615 72.361 15.6791C65.7582 13.7664 64.3229 18.0801 63.6339 18.4464C62.3133 19.1789 63.2894 26.3412 64.3803 27.1958Z" fill="#721C09"/>
<path d="M85.6242 26.911C75.6339 26.9517 80.5142 27.9691 72.5335 27.9691C69.3756 27.9691 66.6771 26.5041 66.6771 24.4693V24.4286C71.6148 22.109 63.347 23.1264 64.6102 17.6325C65.0121 15.8013 67.768 15.6792 71.3852 15.435C74.4282 15.2315 84.7055 17.9988 84.7055 17.9988C88.3801 18.9348 89.7581 26.911 85.6242 26.911Z" fill="#721C09"/>
<path d="M64.0932 14.2549C65.7009 13.4817 73.2797 15.5571 73.2797 15.5571L68.629 23.8589C68.629 23.8589 52.2083 23.5334 57.5479 20.3591C62.0263 17.7139 61.854 15.3536 64.0932 14.2549Z" fill="#721C09"/>
<path d="M57.031 20.7253C55.7678 22.9636 67.3083 23.3298 68.8585 23.3705L68.5715 23.8589C68.5715 23.8589 53.4138 23.5333 57.031 20.7253Z" fill="#721C09"/>
<path d="M68.3993 19.0974C70.3514 21.2136 71.2126 21.6612 71.2126 21.6612C71.2126 21.6612 69.2605 21.3356 67.9399 19.952L68.3993 19.0974Z" fill="#721C09"/>
<path d="M68.2845 18.6499C69.1457 18.6499 68.2845 21.6206 69.2605 22.4346C69.0309 22.9636 67.5381 22.638 67.5381 22.638C67.5381 22.638 67.9974 18.9755 67.94 18.772L68.2845 18.6499Z" fill="#721C09"/>
<path d="M63.8062 21.295L64.6674 21.9054C64.6674 21.9054 72.5333 16.7778 74.7151 15.7605L72.1314 15.3535L63.8062 21.295Z" fill="#721C09"/>
<path d="M57.4331 22.9229L59.9594 24.6728L79.8825 10.6329L77.3562 8.88306L57.4331 22.9229Z" fill="#428BC1"/>
<path d="M77.7583 9.20852L79.4233 10.348L81.6051 8.84227L79.9401 7.66211L77.7583 9.20852Z" fill="#574137"/>
<path d="M74.2559 10.5515L77.4711 12.7897L78.0453 12.4235L74.83 10.1445L74.2559 10.5515Z" fill="#574137"/>
<path d="M69.0884 13.5629L69.5477 13.8477L74.8299 10.1445L74.3706 9.85962L69.0884 13.5629Z" fill="#574137"/>
<path d="M59.9592 24.6727L54.3325 26.8703L57.4329 22.9229L59.9592 24.6727Z" fill="#A9B5AE"/>
<path d="M53.7012 27.0331L54.1031 27.318L55.2514 26.5041L54.8495 26.2192L53.7012 27.0331Z" fill="#574137"/>
<path d="M75.1744 25.7309C75.2892 25.4867 75.3466 25.2833 75.4041 25.0391C75.4615 24.917 75.5189 24.7949 75.5763 24.6321C76.1505 22.8822 66.7918 21.7428 66.7918 21.7428L66.1028 21.6207C64.61 21.3765 61.3373 21.0917 58.9259 23.045C57.2608 24.4287 58.9833 25.8123 60.5335 25.8937C64.7248 26.1785 67.8252 26.9111 70.1793 27.6029C72.2462 28.2947 74.3132 27.5215 75.1744 25.7309Z" fill="#721C09"/>
<path d="M66.0452 22.2717C64.5524 21.9054 62.141 20.9694 59.0405 22.9228C61.9113 20.4404 66.5619 21.7019 66.7342 21.7426C71.0978 22.1496 73.9685 20.9287 73.9685 20.9287C73.1073 22.4751 68.227 22.8007 66.0452 22.2717Z" fill="#721C09"/>
<path d="M72.8203 27.4399C80.801 27.4399 75.9781 26.4225 85.911 26.3818C86.7722 26.3818 87.4612 25.7714 87.8631 25.2017C87.576 26.3004 86.7148 26.9109 85.6239 26.9109C75.6336 26.9516 80.4565 28.0096 72.4758 28.0096C69.3179 28.0096 66.3323 26.8702 63.8061 26.3004C63.7487 26.2597 69.8347 27.4399 72.8203 27.4399Z" fill="#721C09"/>
</g>
</g>
<defs>
<filter id="filter0_d_40_365" x="51.5527" y="4.81348" width="38.7456" height="28.0449" filterUnits="userSpaceOnUse" color-interpolation-filters="sRGB">
<feFlood flood-opacity="0" result="BackgroundImageFix"/>
<feColorMatrix in="SourceAlpha" type="matrix" values="0 0 0 0 0 0 0 0 0 0 0 0 0 0 0 0 0 0 127 0" result="hardAlpha"/>
<feOffset dy="1"/>
<feGaussianBlur stdDeviation="0.5"/>
<feComposite in2="hardAlpha" operator="out"/>
<feColorMatrix type="matrix" values="0 0 0 0 0 0 0 0 0 0 0 0 0 0 0 0 0 0 0.15 0"/>
<feBlend mode="normal" in2="BackgroundImageFix" result="effect1_dropShadow_40_365"/>
<feBlend mode="normal" in="SourceGraphic" in2="effect1_dropShadow_40_365" result="shape"/>
</filter>
<clipPath id="clip0_40_365">
<rect width="32.0898" height="27.6412" fill="white" transform="matrix(0.989949 0.141426 -0.11955 0.992828 32.2451 11.0854)"/>
</clipPath>
</defs>
</svg>
